<?xml version="1.0" standalone="no"?>
<!DOCTYPE svg PUBLIC "-//W3C//DTD SVG 20010904//EN"
 "http://www.w3.org/TR/2001/REC-SVG-20010904/DTD/svg10.dtd">
<svg version="1.0" xmlns="http://www.w3.org/2000/svg"
 width="264.000000pt" height="264.000000pt" viewBox="0 0 264.000000 264.000000"
 preserveAspectRatio="xMidYMid meet">
<metadata>
Created by potrace 1.14, written by Peter Selinger 2001-2017
</metadata>
<g transform="translate(0.000000,264.000000) scale(0.100000,-0.100000)"
fill="#000000" stroke="none">
<path d="M1290 2532 c-8 -3 -43 -23 -78 -44 -34 -21 -64 -38 -67 -38 -3 0 -36
-20 -75 -45 -39 -25 -72 -45 -75 -45 -2 0 -82 -46 -177 -103 -95 -56 -237
-140 -314 -186 -78 -45 -150 -91 -160 -103 -18 -19 -19 -50 -20 -577 -1 -452
1 -561 13 -583 13 -26 96 -87 152 -111 14 -7 28 -14 31 -17 3 -3 28 -19 55
-34 28 -16 175 -102 327 -192 152 -90 282 -164 287 -164 6 0 11 -4 11 -10 0
-5 7 -10 15 -10 8 0 15 -5 15 -12 0 -6 3 -8 7 -5 3 4 14 1 22 -7 40 -36 86
-25 216 54 28 17 58 33 68 36 9 4 17 10 17 15 0 5 5 9 12 9 6 0 55 27 109 60
53 33 102 60 108 60 6 0 11 4 11 9 0 5 8 11 18 14 9 4 37 18 62 33 25 15 54
32 65 38 11 6 38 23 60 37 22 14 52 32 67 40 83 44 207 121 224 140 18 20 19
43 20 581 1 553 1 560 -20 590 -12 17 -28 35 -36 39 -8 5 -61 36 -118 69 -57
33 -108 60 -113 60 -5 0 -9 5 -9 10 0 6 -4 10 -9 10 -5 0 -89 47 -186 105 -97
58 -179 105 -182 105 -3 0 -20 10 -37 23 -17 12 -51 33 -76 46 -25 14 -61 34
-80 46 -19 12 -38 22 -41 21 -4 -1 -16 7 -26 16 -20 19 -67 28 -93 20z"/>
</g>
</svg>
